# xmcd
#
# Track frame offsets: 
#        150
#        22415
#        47414
#        72381
#        100098
#        128518
#        145078
#        168500
#        193944
#        211039
#        236801
#        255368
#        270754
#        294050
#        313656
#
# Disc length: 4412 seconds
#
# Revision: 8
# Processed by: cddbd v1.5.2PL0 Copyright (c) Steve Scherf et al.
# Submitted via: ExactAudioCopyFreeDBPlugin 1.0
#
DISCID=ce113a0f
DTITLE=Various Artist - Live Earth
DYEAR=2007
DGENRE=No, thanks.
TTITLE0=Madonna - Hey You (Live)
TTITLE1=Foo Fighters - Times Like These (Live)
TTITLE2=The Police - Driven To Tears (Live)
TTITLE3=John Mayer - Gravity (Live)
TTITLE4=Roger Waters - Another Brick In The Wall Pt. 2 (Live)
TTITLE5=Linkin Park - Bleed It Out (Live)
TTITLE6=KEANE - Bedshaped (Live)
TTITLE7=Bon Jovi - Wanted Dead Or Alive (Live)
TTITLE8=James Blunt - Wisemen (Live)
TTITLE9=Chris Cornell - Black Hole Sun (Live)
TTITLE10=Lenny Kravitz - Are You Gonna Go My Way (Live)
TTITLE11=Beastie Boys - Intergalactic (Live)
TTITLE12=KT Tunstall - Suddenly I See (Live)
TTITLE13=Corinne Bailey Rae and John Legend - Mercy Mercy Me (The Ecolog
TTITLE13=y) (Live)
TTITLE14=Damien Rice and David Gray - Que Sera, Sera (Live)
EXTD=YEAR: 2007
EXTT0=
EXTT1=
EXTT2=
EXTT3=
EXTT4=
EXTT5=
EXTT6=
EXTT7=
EXTT8=
EXTT9=
EXTT10=
EXTT11=
EXTT12=
EXTT13=
EXTT14=
PLAYORDER=
